<svg xmlns="http://www.w3.org/2000/svg" xmlns:xlink="http://www.w3.org/1999/xlink" version="1.1" x="0px" y="0px" viewBox="0 0 100 125" enable-background="new 0 0 100 100" xml:space="preserve"><path d="M83.333,16.667H54.167V25h29.167V16.667z M83.333,29.167H54.167V37.5h29.167V29.167z M50,16.667H33.333V37.5H50V16.667z   M83.333,41.667h-50V50h50V41.667z M83.333,54.167h-50V62.5h50V54.167z M91.667,8.333v75c0,6.25-2.083,8.333-8.333,8.333H16.667  c-6.25,0-8.333-2.083-8.333-8.333V25h8.333v58.333H25v-75H91.667z M75,66.667H33.333V75H75V66.667z M95.833,0h-75  c-4.167,0-4.167,0.042-4.167,4.167v12.5h-12.5C0,16.667,0,16.708,0,20.833v62.5C0,93.75,6.25,100,16.667,100h66.667  C93.75,100,100,93.75,100,83.333V4.167C100,0.042,100,0,95.833,0z"/><text x="0" y="115" fill="#000000" font-size="5px" font-weight="bold" font-family="'Helvetica Neue', Helvetica, Arial-Unicode, Arial, Sans-serif">Created by Thomas Helbig</text><text x="0" y="120" fill="#000000" font-size="5px" font-weight="bold" font-family="'Helvetica Neue', Helvetica, Arial-Unicode, Arial, Sans-serif">from the Noun Project</text></svg>